<svg id="Layer_1" data-name="Layer 1" xmlns="http://www.w3.org/2000/svg" viewBox="0 0 554 77"><defs><style>.cls-1{fill:#1e2b3c;}</style></defs><path class="cls-1" d="M100.38,60a.33.33,0,0,1-.35-.35V10.37a.33.33,0,0,1,.35-.35H118.7c14.91.07,22.22,10.58,22.22,25.49S133.61,60,118.7,60Zm18.32-6c9.52,0,15.13-6.39,15.13-18.46,0-11.86-5.61-19.46-15.13-19.46H107.13a.34.34,0,0,0-.36.36v37.2a.35.35,0,0,0,.36.36Z"/><path class="cls-1" d="M148.52,17.94a.33.33,0,0,1-.35-.35V10.41a.33.33,0,0,1,.35-.35h7.1a.33.33,0,0,1,.36.35v7.18a.33.33,0,0,1-.36.35Zm7,41.71a.33.33,0,0,1-.35.35h-6a.33.33,0,0,1-.35-.35V24.43a.33.33,0,0,1,.35-.35h6a.33.33,0,0,1,.35.35Z"/><path class="cls-1" d="M181,68.73c7.45,0,10.08-5.11,10.08-10.08V56.73a.37.37,0,0,0-.71-.14,15.59,15.59,0,0,1-10.15,4.12c-9.66,0-16.9-7.6-16.9-18.67s6.53-18.67,16.9-18.67a16.77,16.77,0,0,1,10.15,4c.21.21.57.36.71-.07l.71-2.84c.07-.21.14-.35.36-.35h5.32a.34.34,0,0,1,.36.35V58.65c0,9.59-6.82,16.12-16.83,16.12-8.73,0-15.34-4.9-15.9-10.58a.34.34,0,0,1,.35-.36h6.18c.21,0,.28.15.35.36C172.52,65.82,175.08,68.73,181,68.73Zm-.07-14.05c6.46,0,10.15-5.26,10.15-12.64S187.36,29.4,180.9,29.4C174.08,29.4,170,34.65,170,42S174.08,54.68,180.9,54.68Z"/><path class="cls-1" d="M233.08,60c-.21,0-.28-.14-.35-.35L232,56.81c-.14-.43-.5-.36-.71-.15a17.08,17.08,0,0,1-10.16,4.05c-10.36,0-16.89-7.6-16.89-18.67s6.53-18.67,16.89-18.67a15.88,15.88,0,0,1,10.16,4c.35.43.71.14.71-.14V10.37a.33.33,0,0,1,.35-.35h6a.33.33,0,0,1,.35.35V59.65a.33.33,0,0,1-.35.35Zm-11.22-5.32C228.33,54.68,232,49.42,232,42S228.33,29.4,221.86,29.4C215.05,29.4,211,34.65,211,42S215.05,54.68,221.86,54.68Z"/><path class="cls-1" d="M249.06,17.94a.33.33,0,0,1-.36-.35V10.41a.33.33,0,0,1,.36-.35h7.1a.33.33,0,0,1,.35.35v7.18a.33.33,0,0,1-.35.35Zm7,41.71a.34.34,0,0,1-.36.35h-6a.33.33,0,0,1-.36-.35V24.43a.33.33,0,0,1,.36-.35h6a.34.34,0,0,1,.36.35Z"/><path class="cls-1" d="M282.64,29.4c-6,0-9.37,5.18-9.37,10.72V59.65a.33.33,0,0,1-.36.35h-6a.34.34,0,0,1-.36-.35V24.43a.34.34,0,0,1,.36-.35h5.32c.22,0,.29.14.36.35l.71,3.2c.14.42.57.28.78.07,2.41-2.42,5-4.33,8.59-4.33h3.62a.34.34,0,0,1,.36.35v5.33a.34.34,0,0,1-.36.35Z"/><path class="cls-1" d="M307.13,60a.33.33,0,0,1-.35-.35V10.37a.33.33,0,0,1,.35-.35h18.32c14.91.07,22.22,10.58,22.22,25.49S340.36,60,325.45,60Zm18.32-6c9.52,0,15.13-6.39,15.13-18.46,0-11.86-5.61-19.46-15.13-19.46H313.88a.34.34,0,0,0-.36.36v37.2a.35.35,0,0,0,.36.36Z"/><path class="cls-1" d="M360.81,44.45a.33.33,0,0,0-.35.36,9.68,9.68,0,0,0,10.08,9.87c5,0,7.52-2.13,9-5,.15-.29.29-.36.5-.36h6.32c.21,0,.42.07.35.36-1.84,6.95-8.16,11-16.18,11-10.65,0-17.26-7.6-17.26-18.67s6.25-18.67,17.26-18.67S387.86,31,387.86,42a8.5,8.5,0,0,1-.36,2.06c-.07.21-.14.35-.35.35Zm9.73-15.05a10,10,0,0,0-10.08,9.37.38.38,0,0,0,.35.36h19.31a.34.34,0,0,0,.36-.36C380.48,34.73,377.57,29.4,370.54,29.4Z"/><path class="cls-1" d="M402.63,60a.45.45,0,0,1-.43-.35l-12-35.22c-.07-.28.22-.35.43-.35h6.46c.21,0,.29.14.36.35L406.75,53a.37.37,0,0,0,.71,0l9.37-28.54c.07-.21.14-.35.35-.35h6.47c.21,0,.42.14.35.35L412,59.65c-.07.21-.14.35-.35.35Z"/><path class="cls-1" d="M449.63,60.71c-14.91,0-22.43-10.65-22.43-25.7s7.52-25.7,22.43-25.7S472,20,472,35,464.54,60.71,449.63,60.71ZM465,35c0-12.28-5.4-19.67-15.34-19.67S434.29,22.73,434.29,35s5.4,19.67,15.34,19.67S465,47.29,465,35Z"/><path class="cls-1" d="M485.49,24.08c.21,0,.28.14.35.35l.71,2.91a.38.38,0,0,0,.71.07c1.85-2.06,6.6-4,10.15-4,10.37,0,16.9,7.59,16.9,18.67s-6.53,18.67-16.9,18.67a15.81,15.81,0,0,1-10.15-4.05c-.35-.42-.71-.14-.71.15V73.7a.33.33,0,0,1-.35.36h-6a.34.34,0,0,1-.36-.36V24.43a.34.34,0,0,1,.36-.35ZM496.7,29.4c-6.46,0-10.15,5.25-10.15,12.64s3.69,12.64,10.15,12.64c6.82,0,10.87-5.26,10.87-12.64S503.52,29.4,496.7,29.4Z"/><path class="cls-1" d="M543.42,36.22a.34.34,0,0,1-.35-.36c0-3.9-3.13-6.46-8.88-6.46-5.32,0-7.67,2.34-7.67,4.54,0,4.05,5.11,4.12,8.66,4.62,7.1,1,15.62,1.63,15.62,10.72,0,8.09-6.74,11.43-15.62,11.43-10.79,0-16-5.68-16-12.49a.33.33,0,0,1,.35-.36h6a.39.39,0,0,1,.42.36c0,3.55,3.62,6.46,9.3,6.46,3.63,0,8.88-.78,8.88-5.4,0-4.05-5.89-4.33-8.88-4.69-6.81-.78-15.4-1.84-15.4-10.65,0-5.82,5.61-10.57,14.41-10.57s15.62,4.11,15.62,12.49c0,.21-.07.36-.28.36Z"/><path class="cls-1" d="M35,70H1.4A1.4,1.4,0,0,1,0,68.6V1.4A1.4,1.4,0,0,1,1.4,0H35A35,35,0,0,1,70,35h0A35,35,0,0,1,35,70Zm0-60A25,25,0,1,0,60,35,25,25,0,0,0,35,10Z"/></svg>