<svg id="Layer_1" data-name="Layer 1" xmlns="http://www.w3.org/2000/svg" viewBox="0 0 349 78"><defs><style>.cls-1{fill:#1e2b3c;}</style></defs><path class="cls-1" d="M100.38,60a.33.33,0,0,1-.35-.35V10.37a.33.33,0,0,1,.35-.35H118.7c14.91.07,22.22,10.58,22.22,25.49S133.61,60,118.7,60Zm18.32-6c9.52,0,15.13-6.39,15.13-18.46,0-11.86-5.61-19.46-15.13-19.46H107.13a.34.34,0,0,0-.36.36v37.2a.35.35,0,0,0,.36.36Z"/><path class="cls-1" d="M154.06,44.45a.33.33,0,0,0-.35.36,9.68,9.68,0,0,0,10.08,9.87c5,0,7.52-2.13,9-5,.15-.29.29-.36.5-.36h6.32c.21,0,.42.07.35.36-1.84,6.95-8.16,11-16.18,11-10.65,0-17.26-7.6-17.26-18.67s6.25-18.67,17.26-18.67S181.11,31,181.11,42a8.5,8.5,0,0,1-.36,2.06c-.07.21-.14.35-.35.35Zm9.73-15.05a10,10,0,0,0-10.08,9.37.38.38,0,0,0,.35.36h19.31a.34.34,0,0,0,.36-.36C173.73,34.73,170.82,29.4,163.79,29.4Z"/><path class="cls-1" d="M195.88,60a.45.45,0,0,1-.43-.35l-12-35.22c-.07-.28.22-.35.43-.35h6.46c.21,0,.29.14.36.35L200,53a.37.37,0,0,0,.71,0l9.37-28.54c.07-.21.14-.35.35-.35h6.47c.21,0,.42.14.35.35l-12,35.22c-.07.21-.14.35-.35.35Z"/><path class="cls-1" d="M242.88,60.71c-14.91,0-22.43-10.65-22.43-25.7S228,9.31,242.88,9.31,265.25,20,265.25,35,257.79,60.71,242.88,60.71ZM258.22,35c0-12.28-5.4-19.67-15.34-19.67S227.54,22.73,227.54,35s5.4,19.67,15.34,19.67S258.22,47.29,258.22,35Z"/><path class="cls-1" d="M278.74,24.08c.21,0,.28.14.35.35l.71,2.91a.38.38,0,0,0,.71.07c1.85-2.06,6.6-4,10.15-4,10.37,0,16.9,7.59,16.9,18.67S301,60.71,290.66,60.71a15.81,15.81,0,0,1-10.15-4.05c-.35-.42-.71-.14-.71.15V73.7a.33.33,0,0,1-.35.36h-6a.34.34,0,0,1-.36-.36V24.43a.34.34,0,0,1,.36-.35ZM290,29.4c-6.46,0-10.15,5.25-10.15,12.64S283.49,54.68,290,54.68c6.82,0,10.87-5.26,10.87-12.64S296.77,29.4,290,29.4Z"/><path class="cls-1" d="M336.67,36.22a.34.34,0,0,1-.35-.36c0-3.9-3.13-6.46-8.88-6.46-5.32,0-7.67,2.34-7.67,4.54,0,4.05,5.11,4.12,8.66,4.62,7.1,1,15.62,1.63,15.62,10.72,0,8.09-6.74,11.43-15.62,11.43-10.79,0-16-5.68-16-12.49a.33.33,0,0,1,.35-.36h6a.39.39,0,0,1,.42.36c0,3.55,3.62,6.46,9.3,6.46,3.63,0,8.88-.78,8.88-5.4,0-4.05-5.89-4.33-8.88-4.69-6.81-.78-15.4-1.84-15.4-10.65,0-5.82,5.61-10.57,14.41-10.57s15.62,4.11,15.62,12.49c0,.21-.07.36-.28.36Z"/><path class="cls-1" d="M35,70H1.4A1.4,1.4,0,0,1,0,68.6V1.4A1.4,1.4,0,0,1,1.4,0H35A35,35,0,0,1,70,35h0A35,35,0,0,1,35,70Zm0-60A25,25,0,1,0,60,35,25,25,0,0,0,35,10Z"/></svg>